<mxfile host="65bd71144e">
    <diagram id="pyP9LDdI3wstZk2pH43p" name="Page-1">
        <mxGraphModel dx="2333" dy="1798" grid="1" gridSize="10" guides="1" tooltips="1" connect="1" arrows="1" fold="1" page="1" pageScale="1" pageWidth="3300" pageHeight="2339" math="0" shadow="0">
            <root>
                <mxCell id="0"/>
                <mxCell id="1" parent="0"/>
                <mxCell id="2" value="" style="shape=table;startSize=0;container=1;collapsible=0;childLayout=tableLayout;fontSize=13;" vertex="1" parent="1">
                    <mxGeometry x="240" y="720" width="480" height="930" as="geometry"/>
                </mxCell>
                <mxCell id="3" value="" style="shape=tableRow;horizontal=0;startSize=0;swimlaneHead=0;swimlaneBody=0;top=0;left=0;bottom=0;right=0;collapsible=0;dropTarget=0;fillColor=none;points=[[0,0.5],[1,0.5]];portConstraint=eastwest;" vertex="1" parent="2">
                    <mxGeometry width="480" height="170" as="geometry"/>
                </mxCell>
                <mxCell id="4" value="&lt;span style=&quot;font-size: 50px;&quot;&gt;userprofil&lt;/span&gt;" style="shape=partialRectangle;html=1;whiteSpace=wrap;connectable=0;overflow=hidden;fillColor=none;top=0;left=0;bottom=0;right=0;pointerEvents=1;" vertex="1" parent="3">
                    <mxGeometry width="480" height="170" as="geometry">
                        <mxRectangle width="480" height="170" as="alternateBounds"/>
                    </mxGeometry>
                </mxCell>
                <mxCell id="5" value="" style="shape=tableRow;horizontal=0;startSize=0;swimlaneHead=0;swimlaneBody=0;top=0;left=0;bottom=0;right=0;collapsible=0;dropTarget=0;fillColor=none;points=[[0,0.5],[1,0.5]];portConstraint=eastwest;strokeColor=#FFFFFF;" vertex="1" parent="2">
                    <mxGeometry y="170" width="480" height="760" as="geometry"/>
                </mxCell>
                <mxCell id="6" value="" style="shape=partialRectangle;html=1;whiteSpace=wrap;connectable=0;overflow=hidden;fillColor=none;top=0;left=0;bottom=0;right=0;pointerEvents=1;" vertex="1" parent="5">
                    <mxGeometry width="480" height="760" as="geometry">
                        <mxRectangle width="480" height="760" as="alternateBounds"/>
                    </mxGeometry>
                </mxCell>
                <mxCell id="7" value="id" style="text;strokeColor=none;align=center;fillColor=none;html=1;verticalAlign=middle;whiteSpace=wrap;rounded=0;fontSize=60;" vertex="1" parent="1">
                    <mxGeometry x="300" y="940" width="60" height="30" as="geometry"/>
                </mxCell>
                <mxCell id="8" value="&lt;span style=&quot;font-size: 45px;&quot;&gt;first_name&lt;/span&gt;" style="text;strokeColor=none;align=center;fillColor=none;html=1;verticalAlign=middle;whiteSpace=wrap;rounded=0;fontSize=60;" vertex="1" parent="1">
                    <mxGeometry x="340" y="1030" width="220" height="50" as="geometry"/>
                </mxCell>
                <mxCell id="9" value="last_name" style="text;strokeColor=none;align=center;fillColor=none;html=1;verticalAlign=middle;whiteSpace=wrap;rounded=0;fontSize=45;" vertex="1" parent="1">
                    <mxGeometry x="330" y="1145" width="240" height="50" as="geometry"/>
                </mxCell>
                <mxCell id="10" value="email" style="text;strokeColor=none;align=center;fillColor=none;html=1;verticalAlign=middle;whiteSpace=wrap;rounded=0;fontSize=45;" vertex="1" parent="1">
                    <mxGeometry x="340" y="1260" width="110" height="50" as="geometry"/>
                </mxCell>
                <mxCell id="11" value="password" style="text;strokeColor=none;align=center;fillColor=none;html=1;verticalAlign=middle;whiteSpace=wrap;rounded=0;fontSize=45;" vertex="1" parent="1">
                    <mxGeometry x="340" y="1340" width="210" height="60" as="geometry"/>
                </mxCell>
                <mxCell id="12" value="phone_number" style="text;strokeColor=none;align=center;fillColor=none;html=1;verticalAlign=middle;whiteSpace=wrap;rounded=0;fontSize=45;" vertex="1" parent="1">
                    <mxGeometry x="340" y="1450" width="320" height="40" as="geometry"/>
                </mxCell>
                <mxCell id="13" value="date_create" style="text;strokeColor=none;align=center;fillColor=none;html=1;verticalAlign=middle;whiteSpace=wrap;rounded=0;fontSize=45;" vertex="1" parent="1">
                    <mxGeometry x="340" y="1550" width="230" height="60" as="geometry"/>
                </mxCell>
                <mxCell id="21" value="" style="shape=table;startSize=0;container=1;collapsible=0;childLayout=tableLayout;strokeColor=#FFFFFF;fontSize=45;" vertex="1" parent="1">
                    <mxGeometry x="1920" y="720" width="480" height="880" as="geometry"/>
                </mxCell>
                <mxCell id="22" value="" style="shape=tableRow;horizontal=0;startSize=0;swimlaneHead=0;swimlaneBody=0;top=0;left=0;bottom=0;right=0;collapsible=0;dropTarget=0;fillColor=none;points=[[0,0.5],[1,0.5]];portConstraint=eastwest;strokeColor=#FFFFFF;fontSize=45;" vertex="1" parent="21">
                    <mxGeometry width="480" height="180" as="geometry"/>
                </mxCell>
                <mxCell id="23" value="" style="shape=partialRectangle;html=1;whiteSpace=wrap;connectable=0;overflow=hidden;fillColor=none;top=0;left=0;bottom=0;right=0;pointerEvents=1;strokeColor=#FFFFFF;fontSize=45;" vertex="1" parent="22">
                    <mxGeometry width="480" height="180" as="geometry">
                        <mxRectangle width="480" height="180" as="alternateBounds"/>
                    </mxGeometry>
                </mxCell>
                <mxCell id="24" value="" style="shape=tableRow;horizontal=0;startSize=0;swimlaneHead=0;swimlaneBody=0;top=0;left=0;bottom=0;right=0;collapsible=0;dropTarget=0;fillColor=none;points=[[0,0.5],[1,0.5]];portConstraint=eastwest;strokeColor=#FFFFFF;fontSize=45;" vertex="1" parent="21">
                    <mxGeometry y="180" width="480" height="700" as="geometry"/>
                </mxCell>
                <mxCell id="25" value="" style="shape=partialRectangle;html=1;whiteSpace=wrap;connectable=0;overflow=hidden;fillColor=none;top=0;left=0;bottom=0;right=0;pointerEvents=1;strokeColor=#FFFFFF;fontSize=45;" vertex="1" parent="24">
                    <mxGeometry width="480" height="700" as="geometry">
                        <mxRectangle width="480" height="700" as="alternateBounds"/>
                    </mxGeometry>
                </mxCell>
                <mxCell id="26" value="&lt;font style=&quot;font-size: 50px;&quot;&gt;usercontacts&lt;/font&gt;" style="text;strokeColor=none;align=center;fillColor=none;html=1;verticalAlign=middle;whiteSpace=wrap;rounded=0;fontSize=45;" vertex="1" parent="1">
                    <mxGeometry x="2020" y="800" width="270" height="50" as="geometry"/>
                </mxCell>
                <mxCell id="27" value="id" style="text;strokeColor=none;align=center;fillColor=none;html=1;verticalAlign=middle;whiteSpace=wrap;rounded=0;fontSize=60;" vertex="1" parent="1">
                    <mxGeometry x="1980" y="950" width="60" height="40" as="geometry"/>
                </mxCell>
                <mxCell id="28" value="&lt;span style=&quot;font-size: 45px;&quot;&gt;first_name&lt;/span&gt;" style="text;strokeColor=none;align=center;fillColor=none;html=1;verticalAlign=middle;whiteSpace=wrap;rounded=0;fontSize=60;" vertex="1" parent="1">
                    <mxGeometry x="2020" y="1040" width="220" height="50" as="geometry"/>
                </mxCell>
                <mxCell id="29" value="last_name" style="text;strokeColor=none;align=center;fillColor=none;html=1;verticalAlign=middle;whiteSpace=wrap;rounded=0;fontSize=45;" vertex="1" parent="1">
                    <mxGeometry x="2010" y="1155" width="240" height="50" as="geometry"/>
                </mxCell>
                <mxCell id="30" value="email" style="text;strokeColor=none;align=center;fillColor=none;html=1;verticalAlign=middle;whiteSpace=wrap;rounded=0;fontSize=45;" vertex="1" parent="1">
                    <mxGeometry x="2030" y="1270" width="110" height="50" as="geometry"/>
                </mxCell>
                <mxCell id="31" value="description" style="text;strokeColor=none;align=center;fillColor=none;html=1;verticalAlign=middle;whiteSpace=wrap;rounded=0;fontSize=50;" vertex="1" parent="1">
                    <mxGeometry x="2020" y="1360" width="260" height="70" as="geometry"/>
                </mxCell>
                <mxCell id="32" value="date_create" style="text;strokeColor=none;align=center;fillColor=none;html=1;verticalAlign=middle;whiteSpace=wrap;rounded=0;fontSize=45;" vertex="1" parent="1">
                    <mxGeometry x="2030" y="1490" width="230" height="60" as="geometry"/>
                </mxCell>
                <mxCell id="34" value="" style="endArrow=none;html=1;fontSize=70;strokeWidth=4;" edge="1" parent="1">
                    <mxGeometry width="50" height="50" relative="1" as="geometry">
                        <mxPoint x="720" y="1230" as="sourcePoint"/>
                        <mxPoint x="1080" y="1230" as="targetPoint"/>
                    </mxGeometry>
                </mxCell>
                <mxCell id="36" value="" style="ellipse;whiteSpace=wrap;html=1;strokeColor=#FFFFFF;fontSize=70;" vertex="1" parent="1">
                    <mxGeometry x="1060" y="1110" width="480" height="240" as="geometry"/>
                </mxCell>
                <mxCell id="37" value="" style="endArrow=none;html=1;fontSize=70;strokeWidth=4;entryX=0;entryY=0.457;entryDx=0;entryDy=0;entryPerimeter=0;" edge="1" parent="1" target="24">
                    <mxGeometry width="50" height="50" relative="1" as="geometry">
                        <mxPoint x="1540" y="1220" as="sourcePoint"/>
                        <mxPoint x="1900" y="1220" as="targetPoint"/>
                        <Array as="points">
                            <mxPoint x="1730" y="1220"/>
                        </Array>
                    </mxGeometry>
                </mxCell>
                <mxCell id="38" value="&lt;span style=&quot;font-size: 54px;&quot;&gt;contact&lt;/span&gt;" style="text;strokeColor=none;align=center;fillColor=none;html=1;verticalAlign=middle;whiteSpace=wrap;rounded=0;fontSize=70;" vertex="1" parent="1">
                    <mxGeometry x="1180" y="1180" width="230" height="90" as="geometry"/>
                </mxCell>
                <mxCell id="39" value="1,n" style="text;strokeColor=none;align=center;fillColor=none;html=1;verticalAlign=middle;whiteSpace=wrap;rounded=0;fontSize=54;" vertex="1" parent="1">
                    <mxGeometry x="740" y="1150" width="110" height="60" as="geometry"/>
                </mxCell>
                <mxCell id="40" value="1,1" style="text;strokeColor=none;align=center;fillColor=none;html=1;verticalAlign=middle;whiteSpace=wrap;rounded=0;fontSize=54;" vertex="1" parent="1">
                    <mxGeometry x="1800" y="1145" width="100" height="60" as="geometry"/>
                </mxCell>
            </root>
        </mxGraphModel>
    </diagram>
</mxfile>